# AST/ASF file generated using VICON BodyLanguage
# -----------------------------------------------
:version 1.10
:name VICON
:units
  mass 1.0
  length 0.45
  angle deg
:documentation
   .ast/.asf automatically generated from VICON data using
   VICON BodyBuilder and BodyLanguage model FoxedUp or BRILLIANT.MOD
:root
   order TX TY TZ RX RY RZ
   axis XYZ
   position 0 0 0  
   orientation 0 0 0 
:bonedata
  begin
     id 1 
     name lhipjoint
     direction 0.604623 -0.733026 0.311616 
     length 2.56391 
     axis 0 0 0  XYZ
  end
  begin
     id 2 
     name lfemur
     direction 0.34202 -0.939693 0  
     length 7.75596  
     axis 0 0 20  XYZ
    dof rx ry rz
    limits (-160.0 20.0)
           (-70.0 70.0)
           (-60.0 70.0)
  end
  begin
     id 3 
     name ltibia
     direction 0.34202 -0.939693 0   
     length 7.63697   
     axis 0 0 20   XYZ
    dof rx
    limits (-10.0 170.0)
  end
  begin
     id 4 
     name lfoot
     direction 0.048038 -0.131983 0.990087   
     length 1.94388   
     axis -90 7.62852e-016 20   XYZ
    dof rx rz
    limits (-45.0 90.0)
           (-70.0 20.0)
  end
  begin
     id 5 
     name ltoes
     direction 1.53565e-011 -4.21929e-011 1   
     length 0.984801   
     axis -90 7.62852e-016 20   XYZ
    dof rx
    limits (-90.0 20.0)
  end
  begin
     id 6 
     name rhipjoint
     direction -0.609162 -0.729836 0.31026   
     length 2.57511  
     axis 0 0 0  XYZ 
  end
  begin
     id 7 
     name rfemur
     direction -0.34202 -0.939693 0   
     length 7.60772   
     axis 0 0 -20   XYZ
    dof rx ry rz
    limits (-160.0 20.0)
           (-70.0 70.0)
           (-70.0 60.0)
  end
  begin
     id 8 
     name rtibia
     direction -0.34202 -0.939693 0   
     length 7.68497   
     axis 0 0 -20   XYZ
    dof rx
    limits (-10.0 170.0)
 end
 begin
     id 9 
     name rfoot
     direction -0.0969806 -0.266452 0.958957   
     length 2.01398  
     axis -90 -7.62852e-016 -20   XYZ
    dof rx rz
    limits (-45.0 90.0)
           (-20.0 70.0)
  end
  begin
     id 10 
     name rtoes
     direction -1.53552e-011 -4.21869e-011 1   
     length 1.00896   
     axis -90 -7.62852e-016 -20   XYZ
    dof rx
    limits (-90.0 20.0)
  end
  begin
     id 11 
     name lowerback
     direction 0.0305179 0.993923 -0.10576   
     length 2.09077   
     axis 0 0 0   XYZ
    dof rx ry rz
    limits (-20.0 45.0)
           (-30.0 30.0)
           (-30.0 30.0)
  end
  begin
     id 12 
     name upperback
     direction -0.0137909 0.999867 0.00873764   
     length 2.08918   
     axis 0 0 0   XYZ
    dof rx ry rz
    limits (-20.0 45.0)
           (-30.0 30.0)
           (-30.0 30.0)
  end
  begin
     id 13 
     name thorax
     direction -0.0278536 0.997917 0.0581839   
     length 2.11939   
     axis 0 0 0   XYZ
    dof rx ry rz
    limits (-20.0 45.0)
           (-30.0 30.0)
           (-30.0 30.0)
  end
  begin
     id 14 
     name lowerneck
     direction 0.0138689 0.999837 -0.0116016   
     length 1.74353   
     axis 0 0 0   XYZ
    dof rx ry rz
    limits (-20.0 45.0)
           (-30.0 30.0)
           (-30.0 30.0)
  end
  begin
     id 15 
     name upperneck
     direction -0.00992078 0.999667 0.0238149   
     length 1.71734   
     axis 0 0 0   XYZ
    dof rx ry rz
    limits (-20.0 45.0)
           (-30.0 30.0)
           (-30.0 30.0)
  end
  begin
     id 16
     name head
     direction -0.00530555 0.999941 0.00944937  
     length 1.78249  
     axis 0 0 0   XYZ
    dof rx ry rz
    limits (-20.0 45.0)
           (-30.0 30.0)
           (-30.0 30.0)
  end
  begin
     id 17 
     name lclavicle
     direction 0.929165 0.366864 0.0454227  
     length 3.65686  
     axis 0 0 0   XYZ
    dof ry rz
    limits (-20.0 10.0)
           (0.0 20.0)
  end
  begin
     id 18 
     name lhumerus
     direction 1 -4.4897e-011 3.05413e-018   
     length 5.15218   
     axis -180 -30 -90   XYZ
    dof rx ry rz
    limits (-60.0 90.0)
           (-90.0 90.0)
           (-90.0 90.0)
  end
  begin
     id 19
     name lradius
     direction 1 -4.48963e-011 5.40022e-027   
     length 3.49459   
     axis -180 -30 -90   XYZ
    dof rx
    limits (-10.0 170.0)
  end
  begin
     id 20
     name lwrist
     direction 1 -4.48966e-011 9.79369e-027   
     length 1.7473   
     axis -4.67603e-015 90 90   XYZ
    dof ry
    limits (-180.0 0.0)
 end
  begin
     id 21 
     name lhand
     direction 1 -4.48996e-011 1.9593e-026   
     length 0.512466   
     axis -1.24987e-014 90 90   XYZ
    dof rx rz
    limits (-90.0 90.0)
           (-45.0 45.0)
  end
  begin
     id 22 
     name lfingers
     direction 1 -4.48931e-011 3.91616e-026   
     length 0.413163   
     axis -2.49979e-014 90 90   XYZ
    dof rx
    limits (0.0 90.0)
  end
  begin
     id 23
     name lthumb
     direction 0.707107 -6.34959e-011 0.707107   
     length 0.593222   
     axis -90 45 5.69224e-014   XYZ
    dof rx rz
    limits (-45.0 45.0)
           (-45.0 45.0)
  end
  begin
     id 24 
     name rclavicle
     direction -0.951469 0.307727 0.00346571   
     length 3.42864  
     axis 0 0 0   XYZ 
    dof ry rz
    limits (-10.0 20.0)
           (-20.0 0.0)
  end
  begin
     id 25 
     name rhumerus
     direction -1 -4.48967e-011 2.58643e-027  
     length 5.44344   
     axis -180 30 90   XYZ
    dof rx ry rz
    limits (-90.0 60.0)
           (-90.0 90.0)
           (-90.0 90.0)
  end
  begin
     id 26 
     name rradius
     direction -1 -4.48973e-011 4.26485e-028   
     length 3.58403   
     axis -180 30 90   XYZ
    dof rx
    limits (-10.0 170.0)
  end
  begin
     id 27 
     name rwrist
     direction -1 -4.48962e-011 9.79331e-027   
     length 1.79202   
     axis -4.67603e-015 -90 -90   XYZ
    dof ry
    limits (-180.0 0.0)
  end
  begin
     id 28
     name rhand
     direction -1 -4.48975e-011 1.95891e-026   
     length 0.34249   
     axis -1.24987e-014 -90 -90   XYZ
    dof rx rz
    limits (-90.0 90.0)
           (-45.0 45.0)
  end
  begin
     id 29
     name rfingers
     direction -1 -4.48893e-011 3.9147e-026   
     length 0.276124   
     axis -2.49979e-014 -90 -90   XYZ
    dof rx
    limits (0.0 90.0)
  end
  begin
     id 30
     name rthumb
     direction -0.707107 -6.34898e-011 0.707107   
     length 0.39646   
     axis -90 -45 -5.69224e-014   XYZ
    dof rx rz
    limits (-45.0 45.0)
           (-45.0 45.0)
  end
:hierarchy
  begin
    root lhipjoint rhipjoint lowerback
    lhipjoint lfemur
    lfemur ltibia
    ltibia lfoot
    lfoot ltoes
    rhipjoint rfemur
    rfemur rtibia
    rtibia rfoot
    rfoot rtoes
    lowerback upperback
    upperback thorax
    thorax lowerneck lclavicle rclavicle
    lowerneck upperneck
    upperneck head
    lclavicle lhumerus
    lhumerus lradius
    lradius lwrist
    lwrist lhand lthumb
    lhand lfingers
    rclavicle rhumerus
    rhumerus rradius
    rradius rwrist
    rwrist rhand rthumb
    rhand rfingers
  end

#!OML:ASF H:\charlestonDancing\Project 1\Capture day 1\Session 1\femaleDancer.ASF
:FULLY-SPECIFIED
:DEGREES
16
root -16.4921 16.0871 -1.45426 -11.4297 80.8433 -17.6688
lowerback 26.7797 -4.84337 -1.21411
upperback 5.73846 -6.42454 -2.81612
thorax -8.58089 -2.85394 -0.317316
lowerneck -1.80873 6.18489 6.80632
upperneck -9.03927 8.30532 -2.69339
head -2.15878 4.07407 -2.10414
rclavicle -6.2816e-014 -1.27222e-014
rhumerus -33.9893 24.2958 -97.3311
rradius 44.7694
rwrist 17.2217
rhand -19.9555 -34.1163
rfingers 7.12502
rthumb 6.38281 -64.0001
lclavicle -6.2816e-014 -1.27222e-014
lhumerus 29.4243 -2.77519 66.577
lradius 69.4363
lwrist 26.9437
lhand -17.5888 33.3509
lfingers 7.12502
lthumb 8.66714 63.153
rfemur -43.0084 5.41793 25.2015
rtibia 64.4692
rfoot -23.6736 -4.7641
rtoes -20.4345
lfemur -43.3284 6.5618 -18.9401
ltibia 68.8924
lfoot -20.9642 -10.5529
ltoes -10.0708
17
root -16.573 16.1388 -1.4613 -13.4515 81.9485 -20.2505
lowerback 27.1687 -5.14947 -0.880864
upperback 5.80805 -6.69392 -2.61751
thorax -8.71235 -2.97542 -0.172217
lowerneck -2.16455 6.10126 6.66587
upperneck -9.77534 8.2098 -2.57732
head -2.35576 4.02544 -2.05267
rclavicle -1.59028e-014 -1.59028e-014
rhumerus -33.4666 24.4499 -96.6995
rradius 44.789
rwrist 17.5567
rhand -19.0897 -34.6409
rfingers 7.12502
rthumb 7.21857 -64.4978
lclavicle -1.59028e-014 -1.59028e-014
lhumerus 30.4048 -3.03655 66.718
lradius 69.2937
lwrist 27.5021
lhand -17.8608 33.4822
lfingers 7.12502
lthumb 8.40463 63.295
rfemur -43.4587 4.60348 25.1717
rtibia 63.6515
rfoot -23.0323 -4.7622
rtoes -19.9678
lfemur -44.305 5.37146 -18.7854
ltibia 68.6137
lfoot -19.3263 -10.8064
ltoes -10.239
18
root -16.6627 16.218 -1.47071 -16.0949 83.0993 -23.5352
lowerback 27.6029 -5.43653 -0.617914
upperback 5.85838 -6.94898 -2.36754
thorax -8.87192 -3.08655 0.0714456
lowerneck -2.52868 6.00849 6.66453
upperneck -10.4863 8.08897 -2.6486
head -2.53306 3.96571 -2.08472
rclavicle -6.20208e-014 -1.74931e-014
rhumerus -32.8199 24.5726 -95.9744
rradius 44.6211
rwrist 17.3645
rhand -18.832 -34.8075
rfingers 7.12502
rthumb 7.46734 -64.6557
lclavicle -6.20208e-014 -1.74931e-014
lhumerus 31.37 -3.41627 66.8044
lradius 69.0921
lwrist 27.9169
lhand -17.7031 33.6036
lfingers 7.12502
lthumb 8.55685 63.4103
rfemur -43.8666 3.85643 25.0722
rtibia 62.5056
rfoot -22.2141 -4.92572
rtoes -20.2433
lfemur -45.31 4.17489 -18.6246
ltibia 68.0687
lfoot -17.3307 -11.0439
ltoes -11.1917
19
root -16.7583 16.3235 -1.48345 -20.09 84.2399 -28.2633
lowerback 28.0584 -5.72724 -0.369867
upperback 5.89079 -7.20389 -2.0695
thorax -9.05198 -3.19571 0.38276
lowerneck -2.95622 5.95476 6.73263
upperneck -11.1824 8.01221 -2.79114
head -2.68849 3.92931 -2.14897
rclavicle 1.66979e-014 2.8625e-014
rhumerus -32.0379 24.5994 -95.1248
rradius 44.3479
rwrist 17.3359
rhand -18.7386 -34.8066
rfingers 7.12502
rthumb 7.55748 -64.6516
lclavicle 1.66979e-014 2.8625e-014
lhumerus 32.2829 -3.85466 66.7733
lradius 68.886
lwrist 28.2045
lhand -17.1798 33.808
lfingers 7.12502
lthumb 9.06182 63.5933
rfemur -44.1962 3.18286 24.9575
rtibia 61.0016
rfoot -21.1352 -5.19515
rtoes -20.8547
lfemur -46.3373 3.04318 -18.3858
ltibia 67.2568
lfoot -15.09 -11.5881
ltoes -11.8003
20
root -16.8521 16.4538 -1.50175 -25.5225 85.2854 -34.3664
lowerback 28.5961 -6.02449 -0.17921
upperback 5.95062 -7.4712 -1.75579
thorax -9.22919 -3.30612 0.757016
lowerneck -3.34947 5.93607 6.7983
upperneck -11.9281 7.98124 -2.99836
head -2.86415 3.91841 -2.23813
rclavicle -6.12257e-014 6.36111e-015
rhumerus -31.1593 24.6469 -94.2062
rradius 44
rwrist 17.3795
rhand -19.001 -34.7615
rfingers 7.12502
rthumb 7.30417 -64.6154
lclavicle -6.12257e-014 6.36111e-015
lhumerus 33.0529 -4.25996 66.5569
lradius 68.8381
lwrist 28.3671
lhand -16.9 33.6919
lfingers 7.12502
lthumb 9.33179 63.4654
rfemur -44.2269 2.64723 24.7571
rtibia 59.1726
rfoot -20.0082 -5.49088
rtoes -21.5607
lfemur -47.112 2.03731 -18.1389
ltibia 66.214
lfoot -13.2975 -12.4436
ltoes -13.7859
